<svg xmlns="http://www.w3.org/2000/svg" viewBox="0 0 900 650" role="img" aria-labelledby="title desc">
  <title id="title">Compatible curtain track accessories</title>
  <desc id="desc">Brackets, end caps, gliders, and connector accessories for a track system.</desc>
  <rect width="900" height="650" fill="#f2f1ed"/>
  <rect y="470" width="900" height="180" fill="#ded8cf"/>
  <g transform="translate(118 126)">
    <rect x="0" y="250" width="660" height="62" rx="10" fill="#526169"/>
    <g fill="#ffffff" stroke="#6c7c83" stroke-width="8">
      <rect x="40" y="34" width="140" height="72" rx="14"/>
      <rect x="256" y="0" width="128" height="128" rx="18"/>
      <rect x="486" y="54" width="104" height="150" rx="18"/>
      <circle cx="142" cy="226" r="42"/>
      <circle cx="324" cy="226" r="42"/>
      <circle cx="506" cy="226" r="42"/>
    </g>
    <g stroke="#126c7a" stroke-width="15" stroke-linecap="round">
      <path d="M74 70h72"/>
      <path d="M292 64h56"/>
      <path d="M518 108h40"/>
    </g>
    <path d="M116 326c30 34 64 34 94 0M296 326c30 34 64 34 94 0M478 326c30 34 64 34 94 0" fill="none" stroke="#b06d1e" stroke-width="14" stroke-linecap="round"/>
  </g>
</svg>
