<svg xmlns="http://www.w3.org/2000/svg" viewBox="0 0 900 650" role="img" aria-labelledby="title desc">
  <title id="title">Curtain accessories and components</title>
  <desc id="desc">End caps, connectors, hooks, screws, and mounting accessories.</desc>
  <rect width="900" height="650" fill="#f3f1ed"/>
  <rect y="470" width="900" height="180" fill="#ded8cf"/>
  <g transform="translate(118 132)">
    <rect x="0" y="244" width="666" height="64" rx="12" fill="#526169"/>
    <g fill="#ffffff" stroke="#66757b" stroke-width="8">
      <rect x="48" y="32" width="130" height="130" rx="22"/>
      <rect x="246" y="0" width="170" height="72" rx="16"/>
      <rect x="480" y="64" width="118" height="118" rx="20"/>
      <circle cx="188" cy="244" r="46"/>
      <circle cx="376" cy="238" r="52"/>
      <circle cx="560" cy="248" r="42"/>
    </g>
    <g fill="none" stroke="#b06d1e" stroke-width="16" stroke-linecap="round">
      <path d="M80 96h66"/>
      <path d="M288 36h86"/>
      <path d="M524 122h32"/>
      <path d="M160 332c28 34 58 34 86 0"/>
      <path d="M350 330c32 32 62 32 94 0"/>
    </g>
  </g>
</svg>
