<svg xmlns="http://www.w3.org/2000/svg" viewBox="0 0 1600 900" role="img" aria-labelledby="title desc">
  <title id="title">Curtain track factory production area</title>
  <desc id="desc">Industrial production floor with aluminum tracks, packed cartons, and inspection tables.</desc>
  <defs>
    <linearGradient id="wall" x1="0" y1="0" x2="1" y2="1">
      <stop offset="0" stop-color="#dfe6e8"/>
      <stop offset="1" stop-color="#b8c5ca"/>
    </linearGradient>
    <linearGradient id="metal" x1="0" y1="0" x2="1" y2="0">
      <stop offset="0" stop-color="#f8fbfc"/>
      <stop offset="0.5" stop-color="#aebbc0"/>
      <stop offset="1" stop-color="#f4f7f8"/>
    </linearGradient>
  </defs>
  <rect width="1600" height="900" fill="url(#wall)"/>
  <path d="M0 592h1600v308H0z" fill="#9caab0"/>
  <path d="M0 690h1600v210H0z" fill="#7f8d93"/>
  <g opacity=".42" fill="none" stroke="#ffffff" stroke-width="3">
    <path d="M120 92h1360M120 178h1360M120 264h1360"/>
    <path d="M210 54v312M470 54v312M730 54v312M990 54v312M1250 54v312"/>
  </g>
  <g transform="translate(135 356)">
    <rect x="0" y="160" width="930" height="90" rx="8" fill="#46555d"/>
    <rect x="50" y="0" width="760" height="54" rx="10" fill="url(#metal)" stroke="#75858c" stroke-width="4"/>
    <rect x="86" y="83" width="900" height="44" rx="8" fill="url(#metal)" stroke="#75858c" stroke-width="4"/>
    <rect x="94" y="96" width="872" height="11" rx="5" fill="#5d6a70" opacity=".38"/>
    <rect x="72" y="14" width="705" height="10" rx="5" fill="#5d6a70" opacity=".35"/>
    <g fill="#c6d0d4" stroke="#6f7f86" stroke-width="4">
      <circle cx="180" cy="190" r="34"/>
      <circle cx="735" cy="190" r="34"/>
    </g>
  </g>
  <g transform="translate(1090 390)">
    <rect x="0" y="190" width="332" height="146" fill="#b98345"/>
    <rect x="26" y="44" width="302" height="166" fill="#c9965c"/>
    <rect x="72" y="0" width="318" height="126" fill="#d7aa73"/>
    <path d="M72 0h318l-46 42H27z" fill="#e1bd8a"/>
    <path d="M0 190h332l-44 38H42z" fill="#d8a66d"/>
    <g stroke="#81572d" stroke-width="6" opacity=".55">
      <path d="M80 86h202M80 126h202M68 260h170"/>
    </g>
  </g>
  <g transform="translate(112 128)" fill="#253037" opacity=".22">
    <rect width="155" height="28" rx="3"/>
    <rect y="46" width="238" height="18" rx="3"/>
  </g>
</svg>
